<mxfile host="app.diagrams.net" modified="2020-09-01T03:25:02.737Z" agent="5.0 (Macintosh; Intel Mac OS X 10_15_5) AppleWebKit/537.36 (KHTML, like Gecko) Chrome/85.0.4183.83 Safari/537.36" etag="7O4GBksLMatbtguLQFGr" version="13.6.6" type="github" pages="2">
  <diagram id="9qeOw-TDJV-rw0LjYK_y" name="耗用">
    <mxGraphModel dx="1134" dy="800" grid="1" gridSize="10" guides="1" tooltips="1" connect="1" arrows="1" fold="1" page="1" pageScale="1" pageWidth="827" pageHeight="1169" background="#F1FAEE" math="0" shadow="0">
      <root>
        <mxCell id="0" />
        <mxCell id="1" parent="0" />
        <mxCell id="xz3s9y3MhucFB3rknWTB-11" value="" style="edgeStyle=orthogonalEdgeStyle;rounded=0;orthogonalLoop=1;jettySize=auto;html=1;labelBackgroundColor=#F1FAEE;strokeColor=#457B9D;fontColor=#1D3557;" edge="1" parent="1" source="xz3s9y3MhucFB3rknWTB-1">
          <mxGeometry relative="1" as="geometry">
            <mxPoint x="210" y="190" as="targetPoint" />
          </mxGeometry>
        </mxCell>
        <mxCell id="xz3s9y3MhucFB3rknWTB-14" value="手机" style="edgeLabel;html=1;align=center;verticalAlign=middle;resizable=0;points=[];labelBackgroundColor=#F1FAEE;fontColor=#1D3557;" vertex="1" connectable="0" parent="xz3s9y3MhucFB3rknWTB-11">
          <mxGeometry x="0.4038" y="-1" relative="1" as="geometry">
            <mxPoint as="offset" />
          </mxGeometry>
        </mxCell>
        <mxCell id="xz3s9y3MhucFB3rknWTB-13" value="" style="edgeStyle=orthogonalEdgeStyle;rounded=0;orthogonalLoop=1;jettySize=auto;html=1;labelBackgroundColor=#F1FAEE;strokeColor=#457B9D;fontColor=#1D3557;" edge="1" parent="1" source="xz3s9y3MhucFB3rknWTB-1">
          <mxGeometry relative="1" as="geometry">
            <mxPoint x="510" y="190" as="targetPoint" />
          </mxGeometry>
        </mxCell>
        <mxCell id="xz3s9y3MhucFB3rknWTB-15" value="服务器/PC" style="edgeLabel;html=1;align=center;verticalAlign=middle;resizable=0;points=[];labelBackgroundColor=#F1FAEE;fontColor=#1D3557;" vertex="1" connectable="0" parent="xz3s9y3MhucFB3rknWTB-13">
          <mxGeometry x="0.4113" relative="1" as="geometry">
            <mxPoint as="offset" />
          </mxGeometry>
        </mxCell>
        <mxCell id="xz3s9y3MhucFB3rknWTB-1" value="开始" style="html=1;dashed=0;whitespace=wrap;shape=mxgraph.dfd.start;fillColor=#A8DADC;strokeColor=#457B9D;fontColor=#1D3557;" vertex="1" parent="1">
          <mxGeometry x="320" y="20" width="80" height="30" as="geometry" />
        </mxCell>
        <mxCell id="j4vW0vy3ZKRQ1BJBhKvj-2" style="edgeStyle=orthogonalEdgeStyle;curved=0;rounded=1;sketch=0;orthogonalLoop=1;jettySize=auto;html=1;strokeColor=#457B9D;fillColor=#A8DADC;fontColor=#1D3557;" edge="1" parent="1" source="xz3s9y3MhucFB3rknWTB-16" target="j4vW0vy3ZKRQ1BJBhKvj-1">
          <mxGeometry relative="1" as="geometry" />
        </mxCell>
        <mxCell id="xz3s9y3MhucFB3rknWTB-16" value="获取维修/报废(小米中国)数据" style="shape=parallelogram;perimeter=parallelogramPerimeter;html=1;dashed=0;verticalAlign=middle;whiteSpace=wrap;fillColor=#A8DADC;strokeColor=#457B9D;fontColor=#1D3557;" vertex="1" parent="1">
          <mxGeometry x="140" y="190" width="160" height="60" as="geometry" />
        </mxCell>
        <mxCell id="j4vW0vy3ZKRQ1BJBhKvj-3" style="edgeStyle=orthogonalEdgeStyle;curved=0;rounded=1;sketch=0;orthogonalLoop=1;jettySize=auto;html=1;strokeColor=#457B9D;fillColor=#A8DADC;fontColor=#1D3557;entryX=0.5;entryY=0;entryDx=0;entryDy=0;" edge="1" parent="1" source="xz3s9y3MhucFB3rknWTB-17" target="j4vW0vy3ZKRQ1BJBhKvj-1">
          <mxGeometry relative="1" as="geometry">
            <mxPoint x="360" y="400" as="targetPoint" />
          </mxGeometry>
        </mxCell>
        <mxCell id="xz3s9y3MhucFB3rknWTB-17" value="&lt;span&gt;获取销售/借用数据&lt;/span&gt;" style="shape=parallelogram;perimeter=parallelogramPerimeter;whiteSpace=wrap;html=1;dashed=0;fillColor=#A8DADC;strokeColor=#457B9D;fontColor=#1D3557;" vertex="1" parent="1">
          <mxGeometry x="430" y="190" width="160" height="60" as="geometry" />
        </mxCell>
        <mxCell id="j4vW0vy3ZKRQ1BJBhKvj-6" style="edgeStyle=orthogonalEdgeStyle;curved=0;rounded=1;sketch=0;orthogonalLoop=1;jettySize=auto;html=1;entryX=0.5;entryY=0.5;entryDx=0;entryDy=-15;entryPerimeter=0;strokeColor=#457B9D;fillColor=#A8DADC;fontColor=#1D3557;" edge="1" parent="1" source="j4vW0vy3ZKRQ1BJBhKvj-1" target="j4vW0vy3ZKRQ1BJBhKvj-5">
          <mxGeometry relative="1" as="geometry" />
        </mxCell>
        <mxCell id="j4vW0vy3ZKRQ1BJBhKvj-1" value="计算耗用(换上/换下/保内/保外)" style="html=1;dashed=0;whitespace=wrap;rounded=0;sketch=0;strokeColor=#457B9D;fillColor=#A8DADC;fontColor=#1D3557;" vertex="1" parent="1">
          <mxGeometry x="290" y="480" width="190" height="80" as="geometry" />
        </mxCell>
        <mxCell id="j4vW0vy3ZKRQ1BJBhKvj-5" value="结束" style="html=1;dashed=0;whitespace=wrap;shape=mxgraph.dfd.start;fillColor=#A8DADC;strokeColor=#457B9D;fontColor=#1D3557;" vertex="1" parent="1">
          <mxGeometry x="345" y="710" width="80" height="30" as="geometry" />
        </mxCell>
      </root>
    </mxGraphModel>
  </diagram>
  <diagram id="QJ5TFczsXzoteXP9mDYt" name="Page-2">
    <mxGraphModel dx="1134" dy="800" grid="1" gridSize="10" guides="1" tooltips="1" connect="1" arrows="1" fold="1" page="1" pageScale="1" pageWidth="827" pageHeight="1169" math="0" shadow="0">
      <root>
        <mxCell id="hu2jY_g7sDcTO7a_H1-y-0" />
        <mxCell id="hu2jY_g7sDcTO7a_H1-y-1" parent="hu2jY_g7sDcTO7a_H1-y-0" />
      </root>
    </mxGraphModel>
  </diagram>
</mxfile>
